# xmcd
#
# Track frame offsets:
#	150
#	21565
#	35236
#	52788
#	73598
#	84288
#	97261
#	114802
#	125356
#	138214
#	159666
#	173354
#
# Disc length: 2450 seconds
#
# Revision: 0
# Processed by: cddbd v1.5.2PL0 Copyright (c) Steve Scherf et al.
# Submitted via: EasyCDDAExtractor 2010.4.0.0
#
DISCID=9609900c
DTITLE=Cedryl Ballou and the Zydeco Trendsetters - Let It Be Zydeco
DYEAR=2003
DGENRE=blues
TTITLE0=Let it be
TTITLE1=Yesterday
TTITLE2=Eleanor Rigby
TTITLE3=Hey Jude
TTITLE4=Love me do
TTITLE5=I saw her standing there
TTITLE6=Come together
TTITLE7=Lady Madonna
TTITLE8=Ob la di ob la da (instrumental)
TTITLE9=Let it be (instrumental)
TTITLE10=Yesterday (instrumental)
TTITLE11=Lady Madonna (instrumental)
EXTD=
EXTT0=
EXTT1=
EXTT2=
EXTT3=
EXTT4=
EXTT5=
EXTT6=
EXTT7=
EXTT8=
EXTT9=
EXTT10=
EXTT11=
PLAYORDER=
